<svg xmlns="http://www.w3.org/2000/svg" width="400" height="60" viewBox="0 0 400 60"><g fill="#fff"><path d="M57.99 18h5l8.533 23.667H67.19l-1.967-5.734h-9.466l-1.967 5.734h-4.333zm5.967 14.3L60.49 22.167 57.023 32.3zm19.745-1.867q-.233-1.633-1.3-2.533t-2.534-.9q-2.1 0-3.266 1.533-1.133 1.534-1.134 4.3c0 2.766.379 3.278 1.134 4.3q1.166 1.534 3.266 1.534 1.567 0 2.634-.934 1.067-.967 1.333-2.733l4.267.2q-.233 2.1-1.367 3.667-1.133 1.532-2.933 2.366-1.767.834-3.934.834-2.6 0-4.566-1.134-1.933-1.134-3.034-3.233-1.065-2.1-1.066-4.867 0-2.8 1.066-4.866 1.1-2.1 3.034-3.234 1.966-1.133 4.566-1.133 2.1 0 3.867.8t2.867 2.3q1.133 1.5 1.366 3.5zM93.273 24l.1 2.833q.668-1.532 1.934-2.366 1.3-.867 3.066-.867 1.867 0 3.167.967 1.335.933 1.9 2.666.634-1.8 1.967-2.7 1.366-.933 3.3-.933 1.767 0 3.066.767c1.3.767 1.534 1.266 2 2.266q.7 1.5.7 3.667v11.367h-4.133V31.6q0-2.266-.733-3.433-.7-1.2-2.134-1.2-1.133 0-1.933.533-.8.534-1.233 1.567-.4 1.033-.4 2.533v10.067h-3.8V31.6q0-1.5-.334-2.533-.3-1.034-.966-1.567-.633-.534-1.567-.533-1.133 0-1.933.566-.8.534-1.234 1.567-.4 1.034-.4 2.5v10.067H89.54V24zm22.27 8.833q0-2.8 1.066-4.866 1.068-2.1 3.034-3.234t4.566-1.133q2.3 0 4.133 1.033 1.834 1.035 2.934 3.134 1.1 2.066 1.166 5.1v1.1h-12.566q.133 2.266 1.266 3.533 1.135 1.233 3.067 1.233 1.234 0 2.233-.633a4 4 0 0 0 1.534-1.833l4.233.3q-.8 2.533-3 4.033-2.165 1.466-5 1.467-2.6 0-4.567-1.134-1.965-1.133-3.033-3.233-1.066-2.1-1.067-4.867m12.633-1.7q-.266-2.166-1.367-3.2-1.065-1.033-2.6-1.033-1.8 0-2.9 1.133-1.1 1.1-1.4 3.1zM145.949 18v23.667h-4.2V18zm6.935 6 .2 4.9-.533-.3q.401-2.566 1.933-3.767 1.567-1.233 3.834-1.233 2.9 0 4.466 1.833 1.567 1.8 1.567 4.867v11.367h-4.133V31.6q0-1.566-.3-2.567-.3-.999-1-1.533-.667-.534-1.8-.533-1.8 0-2.834 1.2-1 1.166-1 3.433v10.067h-4.133V24zm25.003 6.433q-.233-1.633-1.3-2.533t-2.534-.9q-2.1 0-3.266 1.533-1.133 1.534-1.134 4.3c0 2.766.379 3.278 1.134 4.3q1.167 1.534 3.266 1.534 1.567 0 2.634-.934 1.066-.966 1.333-2.733l4.267.2q-.233 2.1-1.367 3.667-1.133 1.532-2.933 2.366-1.767.834-3.934.834-2.6 0-4.566-1.134-1.933-1.133-3.034-3.233-1.066-2.1-1.066-4.867 0-2.8 1.066-4.866 1.1-2.1 3.034-3.234 1.966-1.133 4.566-1.133 2.1 0 3.867.8t2.867 2.3q1.134 1.5 1.366 3.5zm9.536 6.8v4.434h-4.667v-4.434z"/><path fill-rule="evenodd" d="M16.533 43.986 29.89 20.608 26.667 15 10 43.986zm6.844 0h19.956L33.325 26.578l-3.35 5.86 3.313 5.762h-6.605z" clip-rule="evenodd"/></g><text x="199.167" y="35" fill="#0a1128" font-family="Arial, sans-serif" font-size="14">Zero-Latency Edge Trading Ecosystem</text></svg>