<svg version="1.1" xmlns="http://www.w3.org/2000/svg" style="display: block;" viewBox="0 0 2048 1536" width="1600" height="1200" preserveAspectRatio="none">
<path transform="translate(0,0)" fill="rgb(0,0,0)" d="M 1024 675.972 C 1054.4 705.229 1085.79 737.757 1115.94 767.667 L 1180.71 702.958 L 1300.04 703.028 C 1321.32 723.173 1343.78 746.655 1364.83 767.586 C 1346.37 787.783 1319.86 812.87 1299.93 832.441 C 1265.68 834.185 1216.15 832.681 1180.98 832.66 L 1115.82 767.748 C 1089.11 795.181 1051.76 833.522 1024.05 859.192 C 994.032 830.601 961.676 797.53 932.42 767.908 C 910.559 789.289 888.868 810.843 867.349 832.569 C 831.801 833.753 783.867 833 748.158 832.493 L 683.047 767.655 C 704.208 746.103 726.547 724.39 748.022 703.06 L 867.531 703.074 L 932.433 767.535 C 936.051 763.362 941.099 758.667 945.091 754.766 C 971.655 728.811 997.459 701.925 1024 675.972 z"/>
<path transform="translate(0,0)" fill="rgb(0,0,0)" d="M 807.979 892.248 C 837.507 892.936 869.628 892.282 899.55 892.475 C 900.329 921.197 899.452 954.595 899.614 983.922 C 872.028 1011.2 843.071 1041.63 815.071 1068.05 C 785.486 1068.68 753.397 1068.14 723.63 1068.15 C 723.342 1037.43 723.327 1006.7 723.586 975.983 C 752.017 949.111 779.382 919.003 807.979 892.248 z"/>
<path transform="translate(0,0)" fill="rgb(0,0,0)" d="M 1233.08 467.066 L 1324.76 467.132 L 1324.68 558.867 C 1297.19 586.977 1268.35 615.047 1240.54 643.056 C 1210.8 643.621 1178.78 643.105 1148.89 643.113 C 1147.89 614.464 1148.78 580.442 1148.83 551.382 C 1156.79 542.323 1171.45 528.508 1180.26 519.686 C 1197.76 502.034 1215.36 484.494 1233.08 467.066 z"/>
<path transform="translate(0,0)" fill="rgb(0,0,0)" d="M 723.861 467.117 L 814.689 467.078 C 842.94 494.374 871.287 523.467 899.069 551.38 C 900.189 577.925 900.052 616.564 899.173 643.095 L 807.689 643.125 C 779.872 615.327 751.802 586.49 723.593 559.227 C 723.002 530.925 722.903 495.248 723.861 467.117 z"/>
<path transform="translate(0,0)" fill="rgb(0,0,0)" d="M 1148.96 892.176 C 1179.16 892.739 1209.99 892.194 1240.37 892.471 L 1324.91 976.92 C 1325.01 1007.3 1324.96 1037.67 1324.75 1068.04 C 1295.09 1068.7 1262.78 1068.17 1232.94 1068.2 L 1148.79 984.06 C 1148.65 953.432 1148.7 922.803 1148.96 892.176 z"/>
</svg>